HIERARCHY
ROOT Hips
{
  OFFSET 13.6774 106.653 -34.4427
  CHANNELS 6 Xposition Yposition Zposition Zrotation Xrotation Yrotation
  JOINT ToSpine
  {
    OFFSET -2.69724 7.43032 -0.144315
    CHANNELS 3 Zrotation Xrotation Yrotation
    JOINT Spine
    {
      OFFSET -0.0310711 10.7595 1.96963
      CHANNELS 3 Zrotation Xrotation Yrotation
      JOINT Spine1
      {
        OFFSET 19.9056 3.91189 0.764692
        CHANNELS 3 Zrotation Xrotation Yrotation
        JOINT Neck
        {
          OFFSET 25.9749 7.03908 -0.130764
          CHANNELS 3 Zrotation Xrotation Yrotation
          JOINT Head
          {
            OFFSET 9.52751 0.295786 -0.907742
            CHANNELS 3 Zrotation Xrotation Yrotation
            End Site
            {
              OFFSET 16.4037 0.713936 2.7358
            }
          }
        }
        JOINT LeftShoulder
        {
          OFFSET 17.7449 4.33886 11.7777
          CHANNELS 3 Zrotation Xrotation Yrotation
          JOINT LeftArm
          {
            OFFSET 0.911315 1.27913 9.80584
            CHANNELS 3 Zrotation Xrotation Yrotation
            JOINT LeftForeArm
            {
              OFFSET 28.6126 1.18197 -3.53199
              CHANNELS 3 Zrotation Xrotation Yrotation
              JOINT LeftHand
              {
                OFFSET 27.5088 0.0218783 0.327423
                CHANNELS 3 Zrotation Xrotation Yrotation
                End Site
                {
                  OFFSET 18.6038 -0.000155887 0.382096
                }
              }
            }
          }
        }
        JOINT RightShoulder
        {
          OFFSET 17.1009 2.89543 -12.2328
          CHANNELS 3 Zrotation Xrotation Yrotation
          JOINT RightArm
          {
            OFFSET 1.4228 0.178766 -10.211
            CHANNELS 3 Zrotation Xrotation Yrotation
            JOINT RightForeArm
            {
              OFFSET 28.733 1.87905 2.64907
              CHANNELS 3 Zrotation Xrotation Yrotation
              JOINT RightHand
              {
                OFFSET 27.4588 0.290562 -0.101845
                CHANNELS 3 Zrotation Xrotation Yrotation
                End Site
                {
                  OFFSET 17.8396 -0.255518 -0.000602873
                }
              }
            }
          }
        }
      }
    }
  }
  JOINT LeftUpLeg
  {
    OFFSET -5.61296 -2.22332 -10.2353
    CHANNELS 3 Zrotation Xrotation Yrotation
    JOINT LeftLeg
    {
      OFFSET 2.56703 -44.7417 -7.93097
      CHANNELS 3 Zrotation Xrotation Yrotation
      JOINT LeftFoot
      {
        OFFSET 3.16933 -46.5642 -3.96578
        CHANNELS 3 Zrotation Xrotation Yrotation
        JOINT LeftToeBase
        {
          OFFSET 0.346054 -6.02161 12.8035
          CHANNELS 3 Zrotation Xrotation Yrotation
          End Site
          {
            OFFSET 0.134235 -1.35082 5.13018
          }
        }
      }
    }
  }
  JOINT RightUpLeg
  {
    OFFSET -5.7928 -1.72406 10.6446
    CHANNELS 3 Zrotation Xrotation Yrotation
    JOINT RightLeg
    {
      OFFSET -2.57161 -44.7178 -7.85259
      CHANNELS 3 Zrotation Xrotation Yrotation
      JOINT RightFoot
      {
        OFFSET -3.10148 -46.5936 -4.03391
        CHANNELS 3 Zrotation Xrotation Yrotation
        JOINT RightToeBase
        {
          OFFSET -0.0828122 -6.13587 12.8035
          CHANNELS 3 Zrotation Xrotation Yrotation
          End Site
          {
            OFFSET -0.131328 -1.35082 5.13018
          }
        }
      }
    }
  }
}
MOTION
Frames: 19
Frame Time: 0.03333333333333333
0.0000 93.1000 0.0000 -71.6141 -32.5713 -166.1414 -71.2148 0.1668 87.8535 95.4613 71.9451 -7.6909 -2.4812 22.2022 2.8367 -149.6351 0.2326 -167.8248 -152.9481 38.0659 -170.2211 1.1324 -10.3302 -15.1895 -108.3910 12.9796 -90.8292 -3.0913 -0.7604 -79.3809 -0.1195 -0.0202 0.3658 -0.1631 4.8243 14.4756 -54.5727 -24.5474 166.5416 6.5618 2.2907 108.9679 -0.0730 0.6023 0.5828 -42.9221 21.8580 104.0121 -4.2829 53.1503 -3.3031 -3.2120 -10.5504 -1.4407 1.6236 -8.0597 13.7429 -49.4974 -20.6139 89.0175 0.3176 36.2115 -5.0490 -5.1091 -3.2606 0.0719 0.9795 -7.1426 -8.9931 
0.0000 93.1000 0.0000 -71.7849 -32.7349 -167.2242 -71.1958 -0.0292 87.9566 94.4875 71.9932 -6.1232 -2.0131 22.1434 1.5931 -148.4836 0.7171 -169.1277 -152.3116 38.2637 -170.9386 1.2041 -9.8586 -15.8863 -112.8364 12.0853 -91.0552 0.1070 -0.3275 -73.7267 0.2590 -0.1662 0.3776 -0.0336 4.6154 14.3446 -55.8186 -24.8029 167.5637 6.3336 2.1143 108.6786 -0.1107 0.4449 0.3226 -43.0756 21.7867 103.9292 -4.4277 51.2130 -3.3056 -3.3802 -9.0304 -1.1528 1.5379 -7.9852 13.5804 -48.7980 -21.8782 87.0670 -0.9852 34.3074 1.2859 -4.0207 1.9664 -0.4114 0.8678 -7.4322 -9.2046 
0.0000 93.1000 0.0000 -71.6150 -32.1828 -167.4884 -71.3257 -0.1378 87.9026 94.1067 71.8741 -6.7796 -1.5049 22.6013 0.3411 -147.7888 0.3137 -170.8658 -149.5240 38.3788 -172.4251 1.3139 -9.9475 -16.2458 -116.9545 11.0220 -90.9587 1.8107 0.1720 -68.6317 -0.1110 0.1274 0.2097 -0.2299 4.5345 14.7447 -56.8269 -25.4759 168.5798 6.8435 2.2172 107.6933 0.1727 -0.4311 -0.5057 -43.7761 22.4898 104.4615 -3.8582 49.2588 -3.5838 -3.3576 -7.4821 -1.1045 1.6308 -7.2587 11.7365 -47.7655 -21.8820 88.9139 -1.4438 34.4186 9.2089 -3.0675 5.3838 -0.0746 1.5005 -13.5524 -12.8705 
0.0000 93.1000 0.0000 -71.6284 -32.1565 -168.7544 -71.3930 -0.1412 87.9847 93.4068 72.0289 -5.8991 -1.6534 22.9073 -0.7392 -147.4001 0.3931 -170.9960 -147.9786 38.2162 -172.4296 0.8724 -9.9496 -17.1451 -120.6125 9.6336 -89.9762 3.3726 1.2305 -64.8315 0.0321 0.1327 0.2338 -0.2583 4.3257 14.1523 -58.0804 -26.2709 169.5968 6.3746 2.1770 106.9961 -0.0679 -0.0014 -0.0976 -44.5895 22.7956 103.5895 -2.3210 47.1549 -2.4658 -3.6668 -4.9324 -0.8853 1.1004 -6.8263 8.9976 -47.8832 -20.1340 92.4479 -0.3472 35.9147 2.8604 -1.7358 4.1925 -0.4969 1.6615 -17.4978 -10.4873 
0.0000 93.1000 0.0000 -70.7386 -33.1893 -168.8312 -71.5108 -0.5153 88.0766 92.3359 71.2683 -4.5548 -0.8655 22.1634 -0.8236 -148.1594 0.6647 -169.2375 -150.2380 38.0000 -171.9337 0.8548 -9.9862 -18.2691 -123.3282 8.0709 -89.0133 4.5852 1.5924 -62.6865 -0.0217 0.0809 0.6312 -0.4885 4.7478 12.2480 -57.8440 -28.4388 171.8033 6.2434 2.4149 106.5232 0.0335 -0.2457 -0.2922 -44.9450 23.2627 102.3620 -2.6686 44.7253 -1.0002 -3.8593 -2.1798 -0.2039 1.7132 -6.3871 6.3959 -47.9722 -19.0698 92.7524 1.1662 37.8915 0.6465 -2.2177 2.8701 -0.1857 1.7426 -20.4379 -9.6272 
0.0000 93.1000 0.0000 -69.8429 -34.2717 -167.4211 -71.4645 -0.1495 88.0309 89.2676 71.1882 -2.2247 -0.1551 21.6562 -1.0478 -148.1390 0.9494 -168.6974 -151.5755 38.0605 -171.9794 1.2055 -9.9879 -19.2500 -125.1296 7.1388 -88.2462 4.9664 2.2532 -61.4997 -0.0495 0.0821 1.1796 0.0517 4.7133 10.6206 -57.8922 -29.2115 173.2313 6.2977 1.9899 105.8914 -0.1417 0.0485 0.1809 -45.0842 24.0250 100.0697 -1.9498 42.0159 0.0888 -3.4583 1.0054 -0.0659 0.7227 -4.7524 2.9660 -48.3133 -17.8627 90.1251 0.4632 39.0480 0.7400 -2.0714 0.0250 -0.0978 2.6141 -19.9752 -8.4138 
0.0000 93.1000 0.0000 -70.3843 -34.9706 -167.8565 -71.4497 -0.5833 87.9812 89.2901 71.0023 -2.1622 0.1908 20.8567 -1.0596 -148.4180 1.1418 -168.7207 -150.5815 38.2343 -170.3411 0.8272 -10.1579 -21.2212 -127.0662 6.0133 -87.0933 5.4707 2.4294 -60.6118 -0.8630 -0.0222 1.1013 -0.5451 4.5918 10.9694 -58.6232 -29.5248 172.7142 6.7943 2.2128 105.7541 -0.0855 -0.2477 -0.3200 -44.9110 24.7280 97.4112 -1.3273 40.1022 2.3168 -3.2836 4.0463 0.3886 0.6100 -3.8929 2.9284 -49.0297 -16.4221 87.7943 0.7353 40.2046 -1.8508 -4.0665 -2.7000 0.1347 1.4874 -18.7171 -6.6060 
0.0000 93.1000 0.0000 -70.1905 -35.8795 -166.1123 -71.3402 -0.4948 87.9284 90.3341 70.6425 -3.7270 0.1755 20.7086 -1.1849 -148.2313 1.2024 -169.7702 -151.4819 38.8897 -171.6314 0.8446 -10.4326 -22.0276 -127.8498 5.9759 -86.4518 4.8699 1.9063 -61.0565 -1.2747 0.0181 0.6906 -0.7112 4.7980 10.5974 -57.8510 -30.1339 173.6658 7.6125 2.4400 105.0665 0.0164 -0.8687 -0.6831 -43.7898 25.7258 95.7058 -1.2161 38.2406 4.5983 -3.2992 5.7910 0.4966 -0.7789 -0.9561 3.8692 -49.2937 -14.4794 86.0195 1.2195 40.9964 -3.3200 -4.3499 -4.8018 0.2603 1.2319 -18.7970 -7.0150 
0.0000 93.1000 0.0000 -69.8839 -37.1296 -165.8122 -71.3742 -0.2192 88.0085 93.2414 70.2688 -6.6164 -0.0817 20.8180 -1.2426 -148.1328 1.1572 -170.7115 -149.9519 38.2529 -174.2494 0.9773 -11.1386 -22.2220 -128.0520 7.0858 -85.3857 5.4251 1.9757 -60.6089 -1.2589 0.1643 0.6069 -0.4580 5.1173 12.0715 -57.9270 -29.3977 172.5441 7.3415 2.3013 105.8058 0.0702 -0.8328 -0.5746 -41.7613 26.6741 95.7766 -1.3250 39.4668 7.7560 -4.6868 5.1865 0.5496 -2.0156 1.6949 3.4683 -49.1626 -13.6649 84.7863 1.3725 42.9233 -2.5441 -3.7640 -6.6985 0.4331 1.5197 -18.1669 -8.3378 
0.0000 93.1000 0.0000 -70.7886 -39.2026 -165.7860 -71.2838 -0.2752 88.0339 95.4656 69.7903 -9.0737 -0.4753 20.7654 -1.5856 -147.1469 1.0231 -172.9948 -148.0224 38.4114 -174.6011 0.8184 -11.2116 -22.6201 -129.3598 8.1298 -84.3212 6.8621 2.6697 -61.3048 -1.1748 0.1214 0.6554 -0.1817 5.1433 12.7940 -57.8539 -29.3270 170.9890 7.2436 2.1881 105.7752 -0.0002 -0.5929 -0.3789 -39.8800 26.8035 97.0888 -2.5355 42.4229 5.9158 -5.7028 0.1224 0.1964 -2.0516 1.4827 3.4507 -49.0446 -13.6971 81.5311 2.1725 46.1703 -2.3746 -5.3038 -9.0264 0.8877 1.5228 -17.1404 -7.6511 
0.0000 93.1000 0.0000 -70.3827 -40.9891 -165.9528 -71.2744 -0.0992 87.9613 95.3207 68.9581 -9.4263 -0.0692 20.1365 -2.3623 -147.2174 1.1968 -172.3163 -149.4715 38.8354 -172.8138 0.7131 -11.3958 -23.7721 -131.3778 8.6714 -83.4171 6.7405 3.2623 -62.5040 -1.1504 0.3317 0.6317 -0.1108 5.3881 12.4693 -56.5726 -29.2540 171.6729 7.9857 2.1321 106.0132 0.1593 -0.7816 -0.5838 -38.6551 25.7278 98.9987 -2.9429 45.4779 0.0744 -5.4321 -4.9500 -0.2719 -1.0042 -2.4218 7.7220 -48.2416 -13.7113 79.9954 1.8886 48.0456 -2.6636 -5.8532 -10.2385 1.2969 1.6639 -17.7918 -10.5158 
0.0000 93.1000 0.0000 -70.3000 -42.0391 -166.1009 -71.3082 -0.0973 87.9090 95.4996 68.8765 -10.2058 -0.1433 19.9988 -2.1592 -147.1091 1.0977 -174.5137 -149.0658 38.3743 -174.3364 0.0532 -11.9982 -24.9805 -129.4083 8.2444 -81.3189 5.8190 2.6397 -64.3146 -1.0492 0.0763 0.9760 -0.3741 4.8236 13.2934 -56.5645 -28.8733 169.9701 7.9598 2.1186 105.9550 0.0622 -0.1470 -0.1986 -37.7451 24.6774 100.5831 -4.2695 49.3181 -2.0348 -5.8068 -7.9632 -0.6082 0.5812 -5.8119 9.7030 -47.9237 -13.6244 79.4724 2.0884 50.0690 -1.2824 -5.9838 -11.9732 1.0226 2.4382 -18.2771 -15.0826 
0.0000 93.1000 0.0000 -71.3546 -43.1845 -166.5137 -71.2734 0.0209 87.8771 95.4102 68.9050 -9.0728 0.3309 19.9282 -2.0371 -145.1456 1.1448 -175.2045 -147.5887 38.1078 -175.3916 0.3690 -12.1833 -25.8859 -127.9732 8.0367 -79.4747 4.7889 2.1237 -66.0946 -1.1477 0.2840 0.5891 -0.6774 4.9476 15.0300 -55.7013 -28.1049 168.2731 7.3072 2.0742 105.9535 0.2472 -0.7579 -0.3336 -37.7915 23.8878 100.3726 -4.8333 50.4192 -1.1569 -5.3260 -8.5375 -1.2680 0.9470 -6.3883 9.5587 -48.5359 -13.2223 79.1931 2.8396 51.0161 -1.2375 -4.8137 -13.2599 1.2450 1.6142 -18.1548 -17.1128 
0.0000 93.1000 0.0000 -71.2670 -43.0834 -167.6735 -71.3145 0.1770 87.8891 93.3946 69.2165 -7.2770 0.8226 20.3445 -2.3833 -144.9939 1.0428 -173.3669 -146.8495 38.0178 -175.7245 0.1911 -12.3714 -25.9045 -127.8281 8.0541 -77.1690 7.3447 2.5667 -67.2821 -1.1992 0.4719 0.4511 -0.9696 5.0735 16.3139 -54.5996 -27.4369 167.6541 7.0639 2.4910 106.8981 0.1674 -0.9169 -0.3955 -38.7931 23.9429 99.8133 -3.0071 48.3615 -3.1181 -5.8128 -7.5143 -1.1024 0.3696 -6.3141 10.8655 -49.3330 -12.8329 79.2828 2.7278 51.0745 -1.6789 -5.4712 -15.0317 1.2787 1.4000 -17.2916 -18.2313 
0.0000 93.1000 0.0000 -72.2117 -42.8757 -167.9267 -71.3373 0.1158 87.8139 93.2820 69.5534 -6.1157 1.1289 20.8942 -3.3815 -144.1840 1.0443 -175.9007 -145.9815 37.4504 -177.7789 -0.0259 -12.1896 -25.9279 -126.1615 8.1641 -75.2379 7.1352 2.8045 -68.6532 -1.2802 0.3735 0.7626 -1.0773 5.2253 17.9254 -53.7129 -27.1404 166.1736 7.6699 2.0644 107.1579 0.1724 -0.6006 -0.3030 -40.8360 23.8430 100.7135 -2.8909 46.1480 -2.1251 -7.2360 -6.1230 -0.8328 0.9245 -5.7500 8.3007 -49.2105 -12.8529 79.5337 2.8692 52.8702 -1.3518 -5.5136 -17.2204 1.2506 1.8876 -15.8409 -18.9976 
0.0000 93.1000 0.0000 -73.1897 -43.1389 -169.3378 -71.3755 0.0227 87.9783 94.9785 69.4216 -6.5471 0.6258 20.9335 -3.7043 -145.1467 1.1554 -175.2146 -148.2765 37.7226 -175.6253 0.1113 -12.2656 -26.2036 -125.8764 7.9146 -74.9573 7.8612 2.8432 -69.5377 -1.0240 0.1627 0.7366 -0.9480 5.2314 17.8674 -51.7338 -26.8845 166.7836 7.6562 2.1193 106.8348 0.2005 -0.2473 -0.0809 -41.8857 24.0676 100.9532 -2.3537 45.1527 -2.3281 -6.6367 -5.5343 -0.5129 1.0580 -5.8229 5.8691 -48.5028 -12.6536 80.2333 2.6218 54.0130 -0.4137 -5.1215 -18.0799 1.0630 1.8002 -15.0805 -20.3999 
0.0000 93.1000 0.0000 -73.1962 -43.2339 -170.5792 -71.4320 0.0242 88.0146 92.4457 69.6143 -5.1251 0.9230 20.8268 -3.7201 -146.0760 0.9423 -173.6105 -147.7915 37.8656 -175.8874 0.0356 -12.1045 -27.1692 -126.0682 7.7595 -72.8811 8.0276 2.8246 -70.4388 -1.1682 0.0564 0.9891 -0.9758 5.0569 17.3004 -51.4625 -26.6071 167.1593 8.0774 2.1745 106.7998 0.1658 0.0124 0.1877 -41.8084 24.7846 102.2592 -3.2410 44.8450 -1.6901 -6.6159 -5.0057 -0.1788 1.1404 -6.0588 5.3492 -48.5528 -12.3207 81.4420 2.8706 54.9859 0.6552 -5.0907 -19.2060 1.0628 2.0342 -15.0603 -23.6502 
0.0000 93.1000 0.0000 -73.2611 -43.2204 -170.2229 -71.3797 0.0789 88.0627 91.2321 69.7347 -4.1609 1.2220 20.8664 -3.2940 -146.1535 0.8839 -172.2161 -149.0636 38.0027 -174.9806 -0.1697 -12.3229 -27.8331 -126.0011 7.1905 -71.8902 8.2871 2.2061 -70.4387 -1.1210 0.0095 1.1278 -0.9999 5.6164 17.0020 -50.5353 -26.5298 167.7963 8.1687 2.1303 106.8906 -0.0476 0.1266 0.0546 -42.6569 25.1437 102.7761 -2.9411 44.3387 -3.3253 -7.3360 -4.3337 -0.0109 0.9672 -5.8382 6.0295 -48.1431 -12.6362 81.2410 4.0850 56.1859 0.0330 -5.4161 -19.7658 0.9938 1.9753 -15.5302 -24.3973 
0.0000 93.1000 0.0000 -73.1946 -43.9583 -171.6687 -71.3946 0.0355 88.0435 91.2370 69.1507 -3.9301 1.6516 20.4246 -3.2351 -145.1706 1.2820 -172.7983 -148.4395 38.0455 -174.4807 -0.2360 -12.2012 -28.1005 -125.1862 6.9338 -72.2269 8.8784 2.6219 -70.5740 -1.1253 -0.0330 1.0188 -1.0533 5.8006 17.0711 -50.4991 -27.1334 167.7945 8.1220 2.7764 107.4460 -0.0192 0.0096 -0.0170 -42.9910 24.9607 102.7649 -3.1700 44.1924 -3.5018 -6.8740 -3.4785 0.0214 0.8474 -6.1793 6.4673 -48.1360 -12.7257 80.4104 4.1249 57.0831 -0.0352 -6.2583 -20.7908 1.1376 1.7158 -14.8884 -24.3127 
